<?xml version="1.0" encoding="UTF-8" standalone="no"?>
<!DOCTYPE svg PUBLIC "-//W3C//DTD SVG 1.1//EN"
 "http://www.w3.org/Graphics/SVG/1.1/DTD/svg11.dtd">
<!-- Generated by graphviz version 2.43.0 (0)
 -->
<!-- Title: %3 Pages: 1 -->
<svg width="4132pt" height="393pt"
 viewBox="0.00 0.00 4132.00 393.00" xmlns="http://www.w3.org/2000/svg" xmlns:xlink="http://www.w3.org/1999/xlink">
<g id="graph0" class="graph" transform="scale(1 1) rotate(0) translate(4 389)">
<title>%3</title>
<polygon fill="white" stroke="transparent" points="-4,4 -4,-389 4128,-389 4128,4 -4,4"/>
<g id="clust1" class="cluster">
<title>cluster_2452_Rahat</title>
<polygon fill="none" stroke="black" points="8,-80 8,-377 2102,-377 2102,-80 8,-80"/>
<text text-anchor="middle" x="1055" y="-361.8" font-family="Times,serif" font-size="14.00">Rahat</text>
</g>
<g id="clust2" class="cluster">
<title>cluster_22_Context</title>
<polygon fill="none" stroke="black" points="2971,-302 2971,-377 3254,-377 3254,-302 2971,-302"/>
<text text-anchor="middle" x="3112.5" y="-361.8" font-family="Times,serif" font-size="14.00">Context</text>
</g>
<g id="clust3" class="cluster">
<title>cluster_1663_AccessControl</title>
<polygon fill="none" stroke="black" points="2758,-8 2758,-230 4116,-230 4116,-8 2758,-8"/>
<text text-anchor="middle" x="3437" y="-214.8" font-family="Times,serif" font-size="14.00">AccessControl</text>
</g>
<g id="clust4" class="cluster">
<title>cluster_solidity</title>
<polygon fill="none" stroke="black" points="2110,-80 2110,-155 2750,-155 2750,-80 2110,-80"/>
<text text-anchor="middle" x="2430" y="-139.8" font-family="Times,serif" font-size="14.00">[Solidity]</text>
</g>
<!-- 2452_getArraySum -->
<g id="node1" class="node">
<title>2452_getArraySum</title>
<ellipse fill="none" stroke="black" cx="1577" cy="-256" rx="72.59" ry="18"/>
<text text-anchor="middle" x="1577" y="-252.3" font-family="Times,serif" font-size="14.00">getArraySum</text>
</g>
<!-- 2452_constructor -->
<g id="node2" class="node">
<title>2452_constructor</title>
<ellipse fill="none" stroke="black" cx="1412" cy="-328" rx="64.19" ry="18"/>
<text text-anchor="middle" x="1412" y="-324.3" font-family="Times,serif" font-size="14.00">constructor</text>
</g>
<!-- 2452__setupRole -->
<g id="node21" class="node">
<title>2452__setupRole</title>
<ellipse fill="none" stroke="black" cx="1989" cy="-256" rx="89.08" ry="18"/>
<text text-anchor="middle" x="1989" y="-252.3" font-family="Times,serif" font-size="14.00">2452__setupRole</text>
</g>
<!-- 2452_constructor&#45;&gt;2452__setupRole -->
<g id="edge3" class="edge">
<title>2452_constructor&#45;&gt;2452__setupRole</title>
<path fill="none" stroke="black" d="M1447.13,-312.9C1458.98,-308.7 1472.39,-304.55 1485,-302 1662.29,-266.17 1711.43,-295.71 1891,-274 1899.26,-273 1907.87,-271.78 1916.42,-270.45"/>
<polygon fill="black" stroke="black" points="1917.09,-273.89 1926.41,-268.85 1915.98,-266.97 1917.09,-273.89"/>
</g>
<!-- 2452_grantRole -->
<g id="node22" class="node">
<title>2452_grantRole</title>
<ellipse fill="none" stroke="black" cx="830" cy="-256" rx="84.49" ry="18"/>
<text text-anchor="middle" x="830" y="-252.3" font-family="Times,serif" font-size="14.00">2452_grantRole</text>
</g>
<!-- 2452_constructor&#45;&gt;2452_grantRole -->
<g id="edge25" class="edge">
<title>2452_constructor&#45;&gt;2452_grantRole</title>
<path fill="none" stroke="black" d="M1376.37,-312.92C1364.36,-308.72 1350.76,-304.56 1338,-302 1165.45,-267.33 1117.93,-293.33 943,-274 930.63,-272.63 917.54,-270.92 904.82,-269.1"/>
<polygon fill="black" stroke="black" points="905.12,-265.61 894.72,-267.63 904.11,-272.53 905.12,-265.61"/>
</g>
<!-- 2452__setRoleAdmin -->
<g id="node25" class="node">
<title>2452__setRoleAdmin</title>
<ellipse fill="none" stroke="black" cx="1775" cy="-256" rx="107.48" ry="18"/>
<text text-anchor="middle" x="1775" y="-252.3" font-family="Times,serif" font-size="14.00">2452__setRoleAdmin</text>
</g>
<!-- 2452_constructor&#45;&gt;2452__setRoleAdmin -->
<g id="edge23" class="edge">
<title>2452_constructor&#45;&gt;2452__setRoleAdmin</title>
<path fill="none" stroke="black" d="M1448.39,-313.13C1459.96,-309.1 1472.9,-304.98 1485,-302 1504.38,-297.22 1608.71,-281.43 1686.72,-269.9"/>
<polygon fill="black" stroke="black" points="1687.67,-273.29 1697.06,-268.37 1686.65,-266.37 1687.67,-273.29"/>
</g>
<!-- 2452_updateProjectBudget -->
<g id="node3" class="node">
<title>2452_updateProjectBudget</title>
<ellipse fill="none" stroke="black" cx="1604" cy="-328" rx="109.68" ry="18"/>
<text text-anchor="middle" x="1604" y="-324.3" font-family="Times,serif" font-size="14.00">updateProjectBudget</text>
</g>
<!-- 2452_adjustTokenAdd -->
<g id="node4" class="node">
<title>2452_adjustTokenAdd</title>
<ellipse fill="none" stroke="black" cx="1264" cy="-181" rx="85.29" ry="18"/>
<text text-anchor="middle" x="1264" y="-177.3" font-family="Times,serif" font-size="14.00">adjustTokenAdd</text>
</g>
<!-- 2452_OnlyAdmin -->
<g id="node23" class="node">
<title>2452_OnlyAdmin</title>
<ellipse fill="none" stroke="black" cx="1098" cy="-106" rx="89.88" ry="18"/>
<text text-anchor="middle" x="1098" y="-102.3" font-family="Times,serif" font-size="14.00">2452_OnlyAdmin</text>
</g>
<!-- 2452_adjustTokenAdd&#45;&gt;2452_OnlyAdmin -->
<g id="edge21" class="edge">
<title>2452_adjustTokenAdd&#45;&gt;2452_OnlyAdmin</title>
<path fill="none" stroke="black" d="M1228.8,-164.52C1203.68,-153.47 1169.71,-138.54 1142.68,-126.65"/>
<polygon fill="black" stroke="black" points="1144,-123.41 1133.44,-122.58 1141.18,-129.81 1144,-123.41"/>
</g>
<!-- 2452_adjustTokenDeduct -->
<g id="node5" class="node">
<title>2452_adjustTokenDeduct</title>
<ellipse fill="none" stroke="black" cx="240" cy="-256" rx="100.18" ry="18"/>
<text text-anchor="middle" x="240" y="-252.3" font-family="Times,serif" font-size="14.00">adjustTokenDeduct</text>
</g>
<!-- 2452_IsBeneficiary -->
<g id="node19" class="node">
<title>2452_IsBeneficiary</title>
<ellipse fill="none" stroke="black" cx="579" cy="-181" rx="98.58" ry="18"/>
<text text-anchor="middle" x="579" y="-177.3" font-family="Times,serif" font-size="14.00">2452_IsBeneficiary</text>
</g>
<!-- 2452_adjustTokenDeduct&#45;&gt;2452_IsBeneficiary -->
<g id="edge14" class="edge">
<title>2452_adjustTokenDeduct&#45;&gt;2452_IsBeneficiary</title>
<path fill="none" stroke="black" d="M301.39,-241.78C359.5,-229.27 446.7,-210.49 507.82,-197.33"/>
<polygon fill="black" stroke="black" points="508.74,-200.71 517.78,-195.18 507.27,-193.87 508.74,-200.71"/>
</g>
<!-- 2452_adjustTokenDeduct&#45;&gt;2452_OnlyAdmin -->
<g id="edge20" class="edge">
<title>2452_adjustTokenDeduct&#45;&gt;2452_OnlyAdmin</title>
<path fill="none" stroke="black" d="M271.93,-238.82C315.63,-217.5 397.1,-180.62 471,-163 653.37,-119.52 872.89,-109.17 997.86,-107.07"/>
<polygon fill="black" stroke="black" points="998.23,-110.56 1008.18,-106.91 998.13,-103.56 998.23,-110.56"/>
</g>
<!-- 2452_issueBulkToken -->
<g id="node6" class="node">
<title>2452_issueBulkToken</title>
<ellipse fill="none" stroke="black" cx="1246" cy="-328" rx="83.39" ry="18"/>
<text text-anchor="middle" x="1246" y="-324.3" font-family="Times,serif" font-size="14.00">issueBulkToken</text>
</g>
<!-- 2452_issueBulkToken&#45;&gt;2452_getArraySum -->
<g id="edge8" class="edge">
<title>2452_issueBulkToken&#45;&gt;2452_getArraySum</title>
<path fill="none" stroke="black" d="M1294.09,-313.29C1308.47,-309.41 1324.33,-305.33 1339,-302 1405.57,-286.91 1422.95,-286.77 1490,-274 1497.07,-272.65 1504.46,-271.23 1511.81,-269.81"/>
<polygon fill="black" stroke="black" points="1512.64,-273.21 1521.79,-267.87 1511.3,-266.34 1512.64,-273.21"/>
</g>
<!-- 2452_findHash -->
<g id="node7" class="node">
<title>2452_findHash</title>
<ellipse fill="none" stroke="black" cx="1485" cy="-181" rx="51.99" ry="18"/>
<text text-anchor="middle" x="1485" y="-177.3" font-family="Times,serif" font-size="14.00">findHash</text>
</g>
<!-- 2452_issueBulkToken&#45;&gt;2452_findHash -->
<g id="edge4" class="edge">
<title>2452_issueBulkToken&#45;&gt;2452_findHash</title>
<path fill="none" stroke="black" d="M1294.61,-313.35C1308.87,-309.5 1324.52,-305.43 1339,-302 1399.05,-287.76 1433.48,-319.66 1475,-274 1490.74,-256.69 1491.81,-229.31 1489.81,-208.91"/>
<polygon fill="black" stroke="black" points="1493.27,-208.45 1488.54,-198.97 1486.33,-209.33 1493.27,-208.45"/>
</g>
<!-- 2452_issueToken -->
<g id="node16" class="node">
<title>2452_issueToken</title>
<ellipse fill="none" stroke="black" cx="1404" cy="-256" rx="61.99" ry="18"/>
<text text-anchor="middle" x="1404" y="-252.3" font-family="Times,serif" font-size="14.00">issueToken</text>
</g>
<!-- 2452_issueBulkToken&#45;&gt;2452_issueToken -->
<g id="edge26" class="edge">
<title>2452_issueBulkToken&#45;&gt;2452_issueToken</title>
<path fill="none" stroke="black" d="M1281.07,-311.46C1305.01,-300.86 1336.85,-286.75 1362.12,-275.55"/>
<polygon fill="black" stroke="black" points="1363.73,-278.67 1371.46,-271.42 1360.9,-272.27 1363.73,-278.67"/>
</g>
<!-- 2452_issueBulkToken&#45;&gt;2452_OnlyAdmin -->
<g id="edge7" class="edge">
<title>2452_issueBulkToken&#45;&gt;2452_OnlyAdmin</title>
<path fill="none" stroke="black" d="M1199.48,-313.07C1185.01,-309.08 1168.93,-305 1154,-302 1107.63,-292.67 974.17,-309.58 943,-274 929.12,-258.16 934.28,-184.7 951,-163 967.48,-141.61 993.16,-128.39 1018.47,-120.22"/>
<polygon fill="black" stroke="black" points="1019.55,-123.55 1028.13,-117.33 1017.55,-116.84 1019.55,-123.55"/>
</g>
<!-- require(bool,string) -->
<g id="node40" class="node">
<title>require(bool,string)</title>
<ellipse fill="none" stroke="black" cx="2640" cy="-106" rx="102.08" ry="18"/>
<text text-anchor="middle" x="2640" y="-102.3" font-family="Times,serif" font-size="14.00">require(bool,string)</text>
</g>
<!-- 2452_issueBulkToken&#45;&gt;require(bool,string) -->
<g id="edge44" class="edge">
<title>2452_issueBulkToken&#45;&gt;require(bool,string)</title>
<path fill="none" stroke="black" d="M1290.49,-312.78C1305.72,-308.53 1322.96,-304.37 1339,-302 1543.55,-271.85 2066.33,-314.92 2269,-274 2400.98,-247.35 2542.12,-167.79 2605.6,-128.9"/>
<polygon fill="black" stroke="black" points="2607.72,-131.7 2614.39,-123.46 2604.04,-125.74 2607.72,-131.7"/>
</g>
<!-- keccak256(bytes) -->
<g id="node41" class="node">
<title>keccak256(bytes)</title>
<ellipse fill="none" stroke="black" cx="2428" cy="-106" rx="91.78" ry="18"/>
<text text-anchor="middle" x="2428" y="-102.3" font-family="Times,serif" font-size="14.00">keccak256(bytes)</text>
</g>
<!-- 2452_findHash&#45;&gt;keccak256(bytes) -->
<g id="edge40" class="edge">
<title>2452_findHash&#45;&gt;keccak256(bytes)</title>
<path fill="none" stroke="black" d="M1534.53,-175.45C1580.88,-171.39 1652.07,-165.7 1714,-163 1748.03,-161.52 2293.83,-162.71 2327,-155 2350.08,-149.64 2374.1,-138.48 2392.93,-128.27"/>
<polygon fill="black" stroke="black" points="2394.7,-131.29 2401.73,-123.37 2391.29,-125.18 2394.7,-131.29"/>
</g>
<!-- abi.encodePacked() -->
<g id="node42" class="node">
<title>abi.encodePacked()</title>
<ellipse fill="none" stroke="black" cx="2218" cy="-106" rx="100.18" ry="18"/>
<text text-anchor="middle" x="2218" y="-102.3" font-family="Times,serif" font-size="14.00">abi.encodePacked()</text>
</g>
<!-- 2452_findHash&#45;&gt;abi.encodePacked() -->
<g id="edge43" class="edge">
<title>2452_findHash&#45;&gt;abi.encodePacked()</title>
<path fill="none" stroke="black" d="M1534.99,-175.51C1581.35,-171.54 1652.28,-165.92 1714,-163 1757.52,-160.94 2063.42,-164.19 2106,-155 2131.58,-149.48 2158.59,-138.09 2179.67,-127.78"/>
<polygon fill="black" stroke="black" points="2181.24,-130.91 2188.62,-123.31 2178.11,-124.65 2181.24,-130.91"/>
</g>
<!-- 2452_addVendor -->
<g id="node8" class="node">
<title>2452_addVendor</title>
<ellipse fill="none" stroke="black" cx="815" cy="-328" rx="60.39" ry="18"/>
<text text-anchor="middle" x="815" y="-324.3" font-family="Times,serif" font-size="14.00">addVendor</text>
</g>
<!-- 2452_addVendor&#45;&gt;2452_grantRole -->
<g id="edge15" class="edge">
<title>2452_addVendor&#45;&gt;2452_grantRole</title>
<path fill="none" stroke="black" d="M818.71,-309.7C820.36,-301.98 822.35,-292.71 824.19,-284.11"/>
<polygon fill="black" stroke="black" points="827.66,-284.62 826.33,-274.1 820.82,-283.15 827.66,-284.62"/>
</g>
<!-- 2452_slitherConstructorConstantVariables -->
<g id="node9" class="node">
<title>2452_slitherConstructorConstantVariables</title>
<ellipse fill="none" stroke="black" cx="1913" cy="-328" rx="181.17" ry="18"/>
<text text-anchor="middle" x="1913" y="-324.3" font-family="Times,serif" font-size="14.00">slitherConstructorConstantVariables</text>
</g>
<!-- 2452_slitherConstructorConstantVariables&#45;&gt;keccak256(bytes) -->
<g id="edge42" class="edge">
<title>2452_slitherConstructorConstantVariables&#45;&gt;keccak256(bytes)</title>
<path fill="none" stroke="black" d="M1974.21,-310.94C2007.93,-301.45 2050.28,-288.48 2087,-274 2200.45,-229.27 2328.02,-161.97 2390.04,-128.09"/>
<polygon fill="black" stroke="black" points="2391.98,-131.02 2399.07,-123.14 2388.62,-124.88 2391.98,-131.02"/>
</g>
<!-- 2452_approveClaim -->
<g id="node10" class="node">
<title>2452_approveClaim</title>
<ellipse fill="none" stroke="black" cx="452" cy="-328" rx="75.29" ry="18"/>
<text text-anchor="middle" x="452" y="-324.3" font-family="Times,serif" font-size="14.00">approveClaim</text>
</g>
<!-- 2452_approveClaim&#45;&gt;2452_IsBeneficiary -->
<g id="edge17" class="edge">
<title>2452_approveClaim&#45;&gt;2452_IsBeneficiary</title>
<path fill="none" stroke="black" d="M493.87,-313.02C523.49,-302.25 559.55,-287.05 569,-274 582.44,-255.45 584.01,-229.02 582.76,-209.24"/>
<polygon fill="black" stroke="black" points="586.23,-208.68 581.84,-199.04 579.26,-209.31 586.23,-208.68"/>
</g>
<!-- 2452_OnlyServer -->
<g id="node24" class="node">
<title>2452_OnlyServer</title>
<ellipse fill="none" stroke="black" cx="469" cy="-256" rx="90.98" ry="18"/>
<text text-anchor="middle" x="469" y="-252.3" font-family="Times,serif" font-size="14.00">2452_OnlyServer</text>
</g>
<!-- 2452_approveClaim&#45;&gt;2452_OnlyServer -->
<g id="edge11" class="edge">
<title>2452_approveClaim&#45;&gt;2452_OnlyServer</title>
<path fill="none" stroke="black" d="M456.2,-309.7C458.1,-301.9 460.38,-292.51 462.48,-283.83"/>
<polygon fill="black" stroke="black" points="465.89,-284.65 464.85,-274.1 459.08,-283 465.89,-284.65"/>
</g>
<!-- 2452_approveClaim&#45;&gt;require(bool,string) -->
<g id="edge39" class="edge">
<title>2452_approveClaim&#45;&gt;require(bool,string)</title>
<path fill="none" stroke="black" d="M492.08,-312.66C505.82,-308.4 521.41,-304.26 536,-302 876.66,-249.24 1745.93,-324.03 2087,-274 2158.7,-263.48 2175.46,-253.52 2244,-230 2318.47,-204.45 2331.28,-180.71 2408,-163 2460.51,-150.87 2476.61,-167.66 2529,-155 2553.78,-149.01 2580.02,-137.91 2600.76,-127.89"/>
<polygon fill="black" stroke="black" points="2602.47,-130.95 2609.88,-123.38 2599.37,-124.67 2602.47,-130.95"/>
</g>
<!-- 2452_addServer -->
<g id="node11" class="node">
<title>2452_addServer</title>
<ellipse fill="none" stroke="black" cx="1086" cy="-328" rx="59.29" ry="18"/>
<text text-anchor="middle" x="1086" y="-324.3" font-family="Times,serif" font-size="14.00">addServer</text>
</g>
<!-- 2452_addServer&#45;&gt;2452_grantRole -->
<g id="edge5" class="edge">
<title>2452_addServer&#45;&gt;2452_grantRole</title>
<path fill="none" stroke="black" d="M1051.32,-313.36C1040.72,-309.43 1028.96,-305.31 1018,-302 978.8,-290.15 934.25,-279.37 898.37,-271.34"/>
<polygon fill="black" stroke="black" points="899.01,-267.89 888.49,-269.14 897.49,-274.73 899.01,-267.89"/>
</g>
<!-- 2452_getProjectBalance -->
<g id="node12" class="node">
<title>2452_getProjectBalance</title>
<ellipse fill="none" stroke="black" cx="641" cy="-328" rx="95.58" ry="18"/>
<text text-anchor="middle" x="641" y="-324.3" font-family="Times,serif" font-size="14.00">getProjectBalance</text>
</g>
<!-- 2452_createClaim -->
<g id="node13" class="node">
<title>2452_createClaim</title>
<ellipse fill="none" stroke="black" cx="1019" cy="-256" rx="66.89" ry="18"/>
<text text-anchor="middle" x="1019" y="-252.3" font-family="Times,serif" font-size="14.00">createClaim</text>
</g>
<!-- 2452_createClaim&#45;&gt;2452_IsBeneficiary -->
<g id="edge10" class="edge">
<title>2452_createClaim&#45;&gt;2452_IsBeneficiary</title>
<path fill="none" stroke="black" d="M964.95,-245.29C951.27,-242.87 936.6,-240.31 923,-238 833.45,-222.78 730.64,-206.16 660.91,-195.01"/>
<polygon fill="black" stroke="black" points="661.29,-191.52 650.86,-193.4 660.19,-198.43 661.29,-191.52"/>
</g>
<!-- 2452_OnlyVendor -->
<g id="node20" class="node">
<title>2452_OnlyVendor</title>
<ellipse fill="none" stroke="black" cx="1053" cy="-181" rx="92.88" ry="18"/>
<text text-anchor="middle" x="1053" y="-177.3" font-family="Times,serif" font-size="14.00">2452_OnlyVendor</text>
</g>
<!-- 2452_createClaim&#45;&gt;2452_OnlyVendor -->
<g id="edge9" class="edge">
<title>2452_createClaim&#45;&gt;2452_OnlyVendor</title>
<path fill="none" stroke="black" d="M1026.89,-238.07C1031.02,-229.2 1036.17,-218.13 1040.81,-208.18"/>
<polygon fill="black" stroke="black" points="1043.99,-209.63 1045.04,-199.09 1037.64,-206.68 1043.99,-209.63"/>
</g>
<!-- 2452_createClaim&#45;&gt;require(bool,string) -->
<g id="edge41" class="edge">
<title>2452_createClaim&#45;&gt;require(bool,string)</title>
<path fill="none" stroke="black" d="M1065.77,-242.98C1075.38,-240.95 1085.47,-239.14 1095,-238 1194.53,-226.11 1447.27,-247.31 1546,-230 1636.68,-214.1 1651.26,-178.55 1742,-163 1828.19,-148.22 2443.46,-173.16 2529,-155 2554.29,-149.63 2580.93,-138.32 2601.78,-128.03"/>
<polygon fill="black" stroke="black" points="2603.58,-131.04 2610.92,-123.4 2600.42,-124.79 2603.58,-131.04"/>
</g>
<!-- 2452_getTokensFromClaim -->
<g id="node14" class="node">
<title>2452_getTokensFromClaim</title>
<ellipse fill="none" stroke="black" cx="1214" cy="-256" rx="109.68" ry="18"/>
<text text-anchor="middle" x="1214" y="-252.3" font-family="Times,serif" font-size="14.00">getTokensFromClaim</text>
</g>
<!-- 2452_getTokensFromClaim&#45;&gt;2452_findHash -->
<g id="edge18" class="edge">
<title>2452_getTokensFromClaim&#45;&gt;2452_findHash</title>
<path fill="none" stroke="black" d="M1294.95,-243.72C1315.67,-240.07 1337.81,-235.52 1358,-230 1387.71,-221.89 1420.17,-209.55 1444.84,-199.42"/>
<polygon fill="black" stroke="black" points="1446.34,-202.58 1454.23,-195.51 1443.65,-196.12 1446.34,-202.58"/>
</g>
<!-- 2452_getTokensFromClaim&#45;&gt;2452_IsBeneficiary -->
<g id="edge12" class="edge">
<title>2452_getTokensFromClaim&#45;&gt;2452_IsBeneficiary</title>
<path fill="none" stroke="black" d="M1137.3,-243.05C1123.26,-241.14 1108.71,-239.36 1095,-238 1031.21,-231.68 1014.83,-235.88 951,-230 851.55,-220.83 737.75,-205.42 662.48,-194.54"/>
<polygon fill="black" stroke="black" points="662.98,-191.08 652.58,-193.1 661.98,-198 662.98,-191.08"/>
</g>
<!-- 2452_getTokensFromClaim&#45;&gt;2452_OnlyVendor -->
<g id="edge2" class="edge">
<title>2452_getTokensFromClaim&#45;&gt;2452_OnlyVendor</title>
<path fill="none" stroke="black" d="M1178.27,-238.8C1154.36,-227.96 1122.74,-213.62 1097.24,-202.06"/>
<polygon fill="black" stroke="black" points="1098.35,-198.72 1087.8,-197.78 1095.46,-205.1 1098.35,-198.72"/>
</g>
<!-- 2452_getTokensFromClaim&#45;&gt;require(bool,string) -->
<g id="edge45" class="edge">
<title>2452_getTokensFromClaim&#45;&gt;require(bool,string)</title>
<path fill="none" stroke="black" d="M1289.07,-242.86C1303.61,-240.91 1318.75,-239.15 1333,-238 1514.22,-223.34 1561.11,-248.29 1742,-230 1905.66,-213.45 1942.33,-179.5 2106,-163 2152.77,-158.29 2483.06,-164.96 2529,-155 2554.27,-149.52 2580.91,-138.21 2601.76,-127.94"/>
<polygon fill="black" stroke="black" points="2603.55,-130.95 2610.9,-123.32 2600.4,-124.7 2603.55,-130.95"/>
</g>
<!-- 2452_suspendBeneficiary -->
<g id="node15" class="node">
<title>2452_suspendBeneficiary</title>
<ellipse fill="none" stroke="black" cx="257" cy="-328" rx="101.28" ry="18"/>
<text text-anchor="middle" x="257" y="-324.3" font-family="Times,serif" font-size="14.00">suspendBeneficiary</text>
</g>
<!-- 2452_suspendBeneficiary&#45;&gt;2452_adjustTokenDeduct -->
<g id="edge24" class="edge">
<title>2452_suspendBeneficiary&#45;&gt;2452_adjustTokenDeduct</title>
<path fill="none" stroke="black" d="M252.8,-309.7C250.9,-301.9 248.62,-292.51 246.52,-283.83"/>
<polygon fill="black" stroke="black" points="249.92,-283 244.15,-274.1 243.11,-284.65 249.92,-283"/>
</g>
<!-- 2452_suspendBeneficiary&#45;&gt;2452_IsBeneficiary -->
<g id="edge1" class="edge">
<title>2452_suspendBeneficiary&#45;&gt;2452_IsBeneficiary</title>
<path fill="none" stroke="black" d="M294.62,-311.14C312.65,-302.18 333.61,-289.63 349,-274 361.84,-260.96 354.56,-249.25 369,-238 401.1,-212.98 443.43,-199.1 481.67,-191.42"/>
<polygon fill="black" stroke="black" points="482.64,-194.8 491.81,-189.5 481.34,-187.92 482.64,-194.8"/>
</g>
<!-- 2452_suspendBeneficiary&#45;&gt;2452_OnlyServer -->
<g id="edge16" class="edge">
<title>2452_suspendBeneficiary&#45;&gt;2452_OnlyServer</title>
<path fill="none" stroke="black" d="M302.74,-311.9C335.67,-301.02 380.23,-286.31 414.93,-274.85"/>
<polygon fill="black" stroke="black" points="416.03,-278.17 424.43,-271.72 413.84,-271.53 416.03,-278.17"/>
</g>
<!-- 2452_issueToken&#45;&gt;2452_adjustTokenAdd -->
<g id="edge13" class="edge">
<title>2452_issueToken&#45;&gt;2452_adjustTokenAdd</title>
<path fill="none" stroke="black" d="M1375.33,-240.05C1354.66,-229.27 1326.5,-214.59 1303.67,-202.68"/>
<polygon fill="black" stroke="black" points="1305.06,-199.46 1294.57,-197.94 1301.82,-205.67 1305.06,-199.46"/>
</g>
<!-- 2452_issueToken&#45;&gt;2452_findHash -->
<g id="edge6" class="edge">
<title>2452_issueToken&#45;&gt;2452_findHash</title>
<path fill="none" stroke="black" d="M1422.38,-238.44C1433.41,-228.5 1447.59,-215.71 1459.67,-204.83"/>
<polygon fill="black" stroke="black" points="1462.16,-207.29 1467.25,-198 1457.48,-202.09 1462.16,-207.29"/>
</g>
<!-- 2452_issueToken&#45;&gt;2452_OnlyAdmin -->
<g id="edge19" class="edge">
<title>2452_issueToken&#45;&gt;2452_OnlyAdmin</title>
<path fill="none" stroke="black" d="M1400.23,-237.86C1394.69,-216.88 1382.27,-181.82 1358,-163 1331.03,-142.08 1248.5,-126.65 1183.57,-117.34"/>
<polygon fill="black" stroke="black" points="1183.7,-113.82 1173.31,-115.9 1182.73,-120.76 1183.7,-113.82"/>
</g>
<!-- 2452_issueToken&#45;&gt;require(bool,string) -->
<g id="edge46" class="edge">
<title>2452_issueToken&#45;&gt;require(bool,string)</title>
<path fill="none" stroke="black" d="M1451.95,-244.45C1465.77,-241.84 1480.93,-239.4 1495,-238 1630.13,-224.59 1971.5,-248.68 2106,-230 2219.51,-214.24 2241.76,-180.62 2355,-163 2431.49,-151.09 2453.57,-172.43 2529,-155 2554.01,-149.22 2580.45,-138.01 2601.25,-127.88"/>
<polygon fill="black" stroke="black" points="2603,-130.92 2610.39,-123.32 2599.88,-124.65 2603,-130.92"/>
</g>
<!-- 2452_addAdmin -->
<g id="node17" class="node">
<title>2452_addAdmin</title>
<ellipse fill="none" stroke="black" cx="951" cy="-328" rx="57.69" ry="18"/>
<text text-anchor="middle" x="951" y="-324.3" font-family="Times,serif" font-size="14.00">addAdmin</text>
</g>
<!-- 2452_addAdmin&#45;&gt;2452_grantRole -->
<g id="edge22" class="edge">
<title>2452_addAdmin&#45;&gt;2452_grantRole</title>
<path fill="none" stroke="black" d="M924.74,-311.81C907.78,-302 885.46,-289.09 866.75,-278.26"/>
<polygon fill="black" stroke="black" points="868.3,-275.11 857.89,-273.13 864.79,-281.17 868.3,-275.11"/>
</g>
<!-- 2452_addProject -->
<g id="node18" class="node">
<title>2452_addProject</title>
<ellipse fill="none" stroke="black" cx="77" cy="-328" rx="61.19" ry="18"/>
<text text-anchor="middle" x="77" y="-324.3" font-family="Times,serif" font-size="14.00">addProject</text>
</g>
<!-- 22__msgData -->
<g id="node26" class="node">
<title>22__msgData</title>
<ellipse fill="none" stroke="black" cx="3189" cy="-328" rx="56.59" ry="18"/>
<text text-anchor="middle" x="3189" y="-324.3" font-family="Times,serif" font-size="14.00">_msgData</text>
</g>
<!-- 22__msgSender -->
<g id="node27" class="node">
<title>22__msgSender</title>
<ellipse fill="none" stroke="black" cx="3047" cy="-328" rx="67.69" ry="18"/>
<text text-anchor="middle" x="3047" y="-324.3" font-family="Times,serif" font-size="14.00">_msgSender</text>
</g>
<!-- 1663_getRoleMember -->
<g id="node28" class="node">
<title>1663_getRoleMember</title>
<ellipse fill="none" stroke="black" cx="4023" cy="-181" rx="85.29" ry="18"/>
<text text-anchor="middle" x="4023" y="-177.3" font-family="Times,serif" font-size="14.00">getRoleMember</text>
</g>
<!-- 1663__revokeRole -->
<g id="node29" class="node">
<title>1663__revokeRole</title>
<ellipse fill="none" stroke="black" cx="3639" cy="-106" rx="66.89" ry="18"/>
<text text-anchor="middle" x="3639" y="-102.3" font-family="Times,serif" font-size="14.00">_revokeRole</text>
</g>
<!-- 1663__msgSender -->
<g id="node39" class="node">
<title>1663__msgSender</title>
<ellipse fill="none" stroke="black" cx="3639" cy="-34" rx="95.58" ry="18"/>
<text text-anchor="middle" x="3639" y="-30.3" font-family="Times,serif" font-size="14.00">1663__msgSender</text>
</g>
<!-- 1663__revokeRole&#45;&gt;1663__msgSender -->
<g id="edge34" class="edge">
<title>1663__revokeRole&#45;&gt;1663__msgSender</title>
<path fill="none" stroke="black" d="M3639,-87.7C3639,-79.98 3639,-70.71 3639,-62.11"/>
<polygon fill="black" stroke="black" points="3642.5,-62.1 3639,-52.1 3635.5,-62.1 3642.5,-62.1"/>
</g>
<!-- 1663_revokeRole -->
<g id="node30" class="node">
<title>1663_revokeRole</title>
<ellipse fill="none" stroke="black" cx="3857" cy="-181" rx="62.29" ry="18"/>
<text text-anchor="middle" x="3857" y="-177.3" font-family="Times,serif" font-size="14.00">revokeRole</text>
</g>
<!-- 1663_revokeRole&#45;&gt;1663__revokeRole -->
<g id="edge37" class="edge">
<title>1663_revokeRole&#45;&gt;1663__revokeRole</title>
<path fill="none" stroke="black" d="M3811.67,-168.58C3803.16,-166.6 3794.33,-164.65 3786,-163 3763.49,-158.55 3756.85,-161.99 3735,-155 3713.84,-148.23 3691.57,-137.36 3673.81,-127.67"/>
<polygon fill="black" stroke="black" points="3675.4,-124.55 3664.96,-122.74 3672,-130.66 3675.4,-124.55"/>
</g>
<!-- 1663_hasRole -->
<g id="node34" class="node">
<title>1663_hasRole</title>
<ellipse fill="none" stroke="black" cx="3791" cy="-106" rx="47.39" ry="18"/>
<text text-anchor="middle" x="3791" y="-102.3" font-family="Times,serif" font-size="14.00">hasRole</text>
</g>
<!-- 1663_revokeRole&#45;&gt;1663_hasRole -->
<g id="edge32" class="edge">
<title>1663_revokeRole&#45;&gt;1663_hasRole</title>
<path fill="none" stroke="black" d="M3842.02,-163.44C3833.27,-153.75 3822.08,-141.37 3812.41,-130.68"/>
<polygon fill="black" stroke="black" points="3814.99,-128.32 3805.69,-123.25 3809.8,-133.01 3814.99,-128.32"/>
</g>
<!-- 1663_revokeRole&#45;&gt;1663__msgSender -->
<g id="edge33" class="edge">
<title>1663_revokeRole&#45;&gt;1663__msgSender</title>
<path fill="none" stroke="black" d="M3860.8,-162.76C3864.57,-140.71 3867.22,-102.65 3847,-80 3831.35,-62.47 3779.9,-51.25 3732.09,-44.4"/>
<polygon fill="black" stroke="black" points="3732.34,-40.9 3721.96,-43 3731.39,-47.83 3732.34,-40.9"/>
</g>
<!-- 1663_revokeRole&#45;&gt;require(bool,string) -->
<g id="edge48" class="edge">
<title>1663_revokeRole&#45;&gt;require(bool,string)</title>
<path fill="none" stroke="black" d="M3813.73,-167.99C3804.64,-165.93 3795.06,-164.1 3786,-163 3729.09,-156.06 2810.16,-166.57 2754,-155 2727.98,-149.64 2700.49,-138.25 2679.03,-127.92"/>
<polygon fill="black" stroke="black" points="2680.43,-124.71 2669.92,-123.42 2677.33,-130.98 2680.43,-124.71"/>
</g>
<!-- 1663_renounceRole -->
<g id="node31" class="node">
<title>1663_renounceRole</title>
<ellipse fill="none" stroke="black" cx="3260" cy="-181" rx="74.19" ry="18"/>
<text text-anchor="middle" x="3260" y="-177.3" font-family="Times,serif" font-size="14.00">renounceRole</text>
</g>
<!-- 1663_renounceRole&#45;&gt;1663__revokeRole -->
<g id="edge31" class="edge">
<title>1663_renounceRole&#45;&gt;1663__revokeRole</title>
<path fill="none" stroke="black" d="M3311.59,-168.06C3321.94,-166.05 3332.78,-164.22 3343,-163 3391.57,-157.18 3516.26,-169.45 3563,-155 3580.41,-149.62 3597.75,-139.16 3611.46,-129.38"/>
<polygon fill="black" stroke="black" points="3613.54,-132.19 3619.5,-123.42 3609.38,-126.56 3613.54,-132.19"/>
</g>
<!-- 1663_renounceRole&#45;&gt;1663__msgSender -->
<g id="edge28" class="edge">
<title>1663_renounceRole&#45;&gt;1663__msgSender</title>
<path fill="none" stroke="black" d="M3281.13,-163.69C3311.05,-141.41 3368.23,-101.74 3423,-80 3463.78,-63.81 3511.31,-53.1 3551.39,-46.21"/>
<polygon fill="black" stroke="black" points="3552.12,-49.63 3561.41,-44.54 3550.97,-42.73 3552.12,-49.63"/>
</g>
<!-- 1663_renounceRole&#45;&gt;require(bool,string) -->
<g id="edge47" class="edge">
<title>1663_renounceRole&#45;&gt;require(bool,string)</title>
<path fill="none" stroke="black" d="M3208.43,-167.92C3198.08,-165.92 3187.23,-164.14 3177,-163 3130.28,-157.82 2799.99,-164.74 2754,-155 2728.01,-149.5 2700.52,-138.1 2679.05,-127.8"/>
<polygon fill="black" stroke="black" points="2680.46,-124.59 2669.94,-123.32 2677.37,-130.87 2680.46,-124.59"/>
</g>
<!-- 1663__setupRole -->
<g id="node32" class="node">
<title>1663__setupRole</title>
<ellipse fill="none" stroke="black" cx="3584" cy="-181" rx="61.99" ry="18"/>
<text text-anchor="middle" x="3584" y="-177.3" font-family="Times,serif" font-size="14.00">_setupRole</text>
</g>
<!-- 1663__grantRole -->
<g id="node33" class="node">
<title>1663__grantRole</title>
<ellipse fill="none" stroke="black" cx="3493" cy="-106" rx="61.19" ry="18"/>
<text text-anchor="middle" x="3493" y="-102.3" font-family="Times,serif" font-size="14.00">_grantRole</text>
</g>
<!-- 1663__setupRole&#45;&gt;1663__grantRole -->
<g id="edge36" class="edge">
<title>1663__setupRole&#45;&gt;1663__grantRole</title>
<path fill="none" stroke="black" d="M3563.8,-163.8C3551.2,-153.69 3534.79,-140.53 3520.95,-129.42"/>
<polygon fill="black" stroke="black" points="3523.13,-126.68 3513.14,-123.16 3518.75,-132.14 3523.13,-126.68"/>
</g>
<!-- 1663__grantRole&#45;&gt;1663__msgSender -->
<g id="edge35" class="edge">
<title>1663__grantRole&#45;&gt;1663__msgSender</title>
<path fill="none" stroke="black" d="M3523.61,-90.33C3544.7,-80.21 3573.02,-66.64 3596.32,-55.46"/>
<polygon fill="black" stroke="black" points="3598.13,-58.48 3605.64,-51 3595.11,-52.16 3598.13,-58.48"/>
</g>
<!-- 1663_getRoleAdmin -->
<g id="node35" class="node">
<title>1663_getRoleAdmin</title>
<ellipse fill="none" stroke="black" cx="3428" cy="-181" rx="76.09" ry="18"/>
<text text-anchor="middle" x="3428" y="-177.3" font-family="Times,serif" font-size="14.00">getRoleAdmin</text>
</g>
<!-- 1663_grantRole -->
<g id="node36" class="node">
<title>1663_grantRole</title>
<ellipse fill="none" stroke="black" cx="3720" cy="-181" rx="56.59" ry="18"/>
<text text-anchor="middle" x="3720" y="-177.3" font-family="Times,serif" font-size="14.00">grantRole</text>
</g>
<!-- 1663_grantRole&#45;&gt;1663__grantRole -->
<g id="edge29" class="edge">
<title>1663_grantRole&#45;&gt;1663__grantRole</title>
<path fill="none" stroke="black" d="M3679.66,-168.32C3671.55,-166.29 3663.05,-164.39 3655,-163 3614.56,-156 3601.64,-168.84 3563,-155 3547.22,-149.35 3531.64,-139.24 3519.2,-129.76"/>
<polygon fill="black" stroke="black" points="3521.14,-126.82 3511.13,-123.35 3516.79,-132.31 3521.14,-126.82"/>
</g>
<!-- 1663_grantRole&#45;&gt;1663_hasRole -->
<g id="edge30" class="edge">
<title>1663_grantRole&#45;&gt;1663_hasRole</title>
<path fill="none" stroke="black" d="M3736.11,-163.44C3745.53,-153.75 3757.57,-141.37 3767.97,-130.68"/>
<polygon fill="black" stroke="black" points="3770.73,-132.86 3775.2,-123.25 3765.72,-127.98 3770.73,-132.86"/>
</g>
<!-- 1663_grantRole&#45;&gt;1663__msgSender -->
<g id="edge27" class="edge">
<title>1663_grantRole&#45;&gt;1663__msgSender</title>
<path fill="none" stroke="black" d="M3723.73,-163.03C3727.4,-141.94 3730.45,-105.6 3715,-80 3708.93,-69.95 3699.7,-61.88 3689.73,-55.52"/>
<polygon fill="black" stroke="black" points="3691.25,-52.35 3680.84,-50.35 3687.73,-58.4 3691.25,-52.35"/>
</g>
<!-- 1663_grantRole&#45;&gt;require(bool,string) -->
<g id="edge38" class="edge">
<title>1663_grantRole&#45;&gt;require(bool,string)</title>
<path fill="none" stroke="black" d="M3680.43,-168C3672.11,-165.94 3663.32,-164.11 3655,-163 3605.38,-156.39 2803.02,-165.13 2754,-155 2727.99,-149.63 2700.5,-138.24 2679.03,-127.9"/>
<polygon fill="black" stroke="black" points="2680.44,-124.7 2669.92,-123.41 2677.34,-130.97 2680.44,-124.7"/>
</g>
<!-- 1663_getRoleMemberCount -->
<g id="node37" class="node">
<title>1663_getRoleMemberCount</title>
<ellipse fill="none" stroke="black" cx="3055" cy="-181" rx="113.18" ry="18"/>
<text text-anchor="middle" x="3055" y="-177.3" font-family="Times,serif" font-size="14.00">getRoleMemberCount</text>
</g>
<!-- 1663__setRoleAdmin -->
<g id="node38" class="node">
<title>1663__setRoleAdmin</title>
<ellipse fill="none" stroke="black" cx="2845" cy="-181" rx="79.09" ry="18"/>
<text text-anchor="middle" x="2845" y="-177.3" font-family="Times,serif" font-size="14.00">_setRoleAdmin</text>
</g>
</g>
</svg>
