<?xml version="1.0" encoding="UTF-8" standalone="no"?>
<!DOCTYPE svg PUBLIC "-//W3C//DTD SVG 1.1//EN"
 "http://www.w3.org/Graphics/SVG/1.1/DTD/svg11.dtd">
<!-- Generated by graphviz version 2.43.0 (0)
 -->
<!-- Title: %3 Pages: 1 -->
<svg width="3356pt" height="254pt"
 viewBox="0.00 0.00 3356.00 254.00" xmlns="http://www.w3.org/2000/svg" xmlns:xlink="http://www.w3.org/1999/xlink">
<g id="graph0" class="graph" transform="scale(1 1) rotate(0) translate(4 250)">
<title>%3</title>
<polygon fill="white" stroke="transparent" points="-4,4 -4,-250 3352,-250 3352,4 -4,4"/>
<g id="clust1" class="cluster">
<title>cluster_1735_AidToken</title>
<polygon fill="none" stroke="black" points="8,-91 8,-238 352,-238 352,-91 8,-91"/>
<text text-anchor="middle" x="180" y="-222.8" font-family="Times,serif" font-size="14.00">AidToken</text>
</g>
<g id="clust2" class="cluster">
<title>cluster_99_IERC20</title>
<polygon fill="none" stroke="black" points="360,-163 360,-238 1162,-238 1162,-163 360,-163"/>
<text text-anchor="middle" x="761" y="-222.8" font-family="Times,serif" font-size="14.00">IERC20</text>
</g>
<g id="clust3" class="cluster">
<title>cluster_990_ERC20</title>
<polygon fill="none" stroke="black" points="1170,-8 1170,-238 3049,-238 3049,-8 1170,-8"/>
<text text-anchor="middle" x="2109.5" y="-222.8" font-family="Times,serif" font-size="14.00">ERC20</text>
</g>
<g id="clust4" class="cluster">
<title>cluster_22_Context</title>
<polygon fill="none" stroke="black" points="3057,-163 3057,-238 3340,-238 3340,-163 3057,-163"/>
<text text-anchor="middle" x="3198.5" y="-222.8" font-family="Times,serif" font-size="14.00">Context</text>
</g>
<g id="clust5" class="cluster">
<title>cluster_solidity</title>
<polygon fill="none" stroke="black" points="3057,-8 3057,-83 3277,-83 3277,-8 3057,-8"/>
<text text-anchor="middle" x="3167" y="-67.8" font-family="Times,serif" font-size="14.00">[Solidity]</text>
</g>
<!-- 1735_mintToken -->
<g id="node1" class="node">
<title>1735_mintToken</title>
<ellipse fill="none" stroke="black" cx="246" cy="-189" rx="59.59" ry="18"/>
<text text-anchor="middle" x="246" y="-185.3" font-family="Times,serif" font-size="14.00">mintToken</text>
</g>
<!-- 1735_OnlyOwner -->
<g id="node3" class="node">
<title>1735_OnlyOwner</title>
<ellipse fill="none" stroke="black" cx="253" cy="-117" rx="90.98" ry="18"/>
<text text-anchor="middle" x="253" y="-113.3" font-family="Times,serif" font-size="14.00">1735_OnlyOwner</text>
</g>
<!-- 1735_mintToken&#45;&gt;1735_OnlyOwner -->
<g id="edge1" class="edge">
<title>1735_mintToken&#45;&gt;1735_OnlyOwner</title>
<path fill="none" stroke="black" d="M247.73,-170.7C248.5,-162.98 249.43,-153.71 250.29,-145.11"/>
<polygon fill="black" stroke="black" points="253.78,-145.4 251.29,-135.1 246.81,-144.71 253.78,-145.4"/>
</g>
<!-- 1735__mint -->
<g id="node4" class="node">
<title>1735__mint</title>
<ellipse fill="none" stroke="black" cx="80" cy="-117" rx="64.19" ry="18"/>
<text text-anchor="middle" x="80" y="-113.3" font-family="Times,serif" font-size="14.00">1735__mint</text>
</g>
<!-- 1735_mintToken&#45;&gt;1735__mint -->
<g id="edge3" class="edge">
<title>1735_mintToken&#45;&gt;1735__mint</title>
<path fill="none" stroke="black" d="M212.81,-174C187.16,-163.19 151.45,-148.13 123.52,-136.35"/>
<polygon fill="black" stroke="black" points="124.57,-132.99 113.99,-132.33 121.85,-139.44 124.57,-132.99"/>
</g>
<!-- 1735_constructor -->
<g id="node2" class="node">
<title>1735_constructor</title>
<ellipse fill="none" stroke="black" cx="80" cy="-189" rx="64.19" ry="18"/>
<text text-anchor="middle" x="80" y="-185.3" font-family="Times,serif" font-size="14.00">constructor</text>
</g>
<!-- 1735_constructor&#45;&gt;1735_constructor -->
<g id="edge4" class="edge">
<title>1735_constructor&#45;&gt;1735_constructor</title>
<path fill="none" stroke="black" d="M124.05,-202.23C144.49,-203.68 162.34,-199.27 162.34,-189 162.34,-180.5 150.1,-176.01 134.28,-175.54"/>
<polygon fill="black" stroke="black" points="133.97,-172.05 124.05,-175.77 134.13,-179.05 133.97,-172.05"/>
</g>
<!-- 1735_constructor&#45;&gt;1735__mint -->
<g id="edge2" class="edge">
<title>1735_constructor&#45;&gt;1735__mint</title>
<path fill="none" stroke="black" d="M80,-170.7C80,-162.98 80,-153.71 80,-145.11"/>
<polygon fill="black" stroke="black" points="83.5,-145.1 80,-135.1 76.5,-145.1 83.5,-145.1"/>
</g>
<!-- 99_approve -->
<g id="node5" class="node">
<title>99_approve</title>
<ellipse fill="none" stroke="black" cx="1106" cy="-189" rx="48.19" ry="18"/>
<text text-anchor="middle" x="1106" y="-185.3" font-family="Times,serif" font-size="14.00">approve</text>
</g>
<!-- 99_balanceOf -->
<g id="node6" class="node">
<title>99_balanceOf</title>
<ellipse fill="none" stroke="black" cx="983" cy="-189" rx="57.39" ry="18"/>
<text text-anchor="middle" x="983" y="-185.3" font-family="Times,serif" font-size="14.00">balanceOf</text>
</g>
<!-- 99_transferFrom -->
<g id="node7" class="node">
<title>99_transferFrom</title>
<ellipse fill="none" stroke="black" cx="834" cy="-189" rx="73.39" ry="18"/>
<text text-anchor="middle" x="834" y="-185.3" font-family="Times,serif" font-size="14.00">transferFrom</text>
</g>
<!-- 99_totalSupply -->
<g id="node8" class="node">
<title>99_totalSupply</title>
<ellipse fill="none" stroke="black" cx="678" cy="-189" rx="64.19" ry="18"/>
<text text-anchor="middle" x="678" y="-185.3" font-family="Times,serif" font-size="14.00">totalSupply</text>
</g>
<!-- 99_transfer -->
<g id="node9" class="node">
<title>99_transfer</title>
<ellipse fill="none" stroke="black" cx="548" cy="-189" rx="48.19" ry="18"/>
<text text-anchor="middle" x="548" y="-185.3" font-family="Times,serif" font-size="14.00">transfer</text>
</g>
<!-- 99_allowance -->
<g id="node10" class="node">
<title>99_allowance</title>
<ellipse fill="none" stroke="black" cx="425" cy="-189" rx="56.59" ry="18"/>
<text text-anchor="middle" x="425" y="-185.3" font-family="Times,serif" font-size="14.00">allowance</text>
</g>
<!-- 990_increaseAllowance -->
<g id="node11" class="node">
<title>990_increaseAllowance</title>
<ellipse fill="none" stroke="black" cx="2377" cy="-189" rx="96.68" ry="18"/>
<text text-anchor="middle" x="2377" y="-185.3" font-family="Times,serif" font-size="14.00">increaseAllowance</text>
</g>
<!-- 990__approve -->
<g id="node17" class="node">
<title>990__approve</title>
<ellipse fill="none" stroke="black" cx="2777" cy="-117" rx="52.79" ry="18"/>
<text text-anchor="middle" x="2777" y="-113.3" font-family="Times,serif" font-size="14.00">_approve</text>
</g>
<!-- 990_increaseAllowance&#45;&gt;990__approve -->
<g id="edge14" class="edge">
<title>990_increaseAllowance&#45;&gt;990__approve</title>
<path fill="none" stroke="black" d="M2432.11,-174.12C2448.44,-170.25 2466.39,-166.23 2483,-163 2564.34,-147.21 2659.22,-133.53 2718.71,-125.53"/>
<polygon fill="black" stroke="black" points="2719.22,-128.99 2728.67,-124.19 2718.3,-122.05 2719.22,-128.99"/>
</g>
<!-- 990__msgSender -->
<g id="node29" class="node">
<title>990__msgSender</title>
<ellipse fill="none" stroke="black" cx="2497" cy="-117" rx="89.88" ry="18"/>
<text text-anchor="middle" x="2497" y="-113.3" font-family="Times,serif" font-size="14.00">990__msgSender</text>
</g>
<!-- 990_increaseAllowance&#45;&gt;990__msgSender -->
<g id="edge16" class="edge">
<title>990_increaseAllowance&#45;&gt;990__msgSender</title>
<path fill="none" stroke="black" d="M2405.13,-171.59C2421.53,-162.02 2442.41,-149.85 2460.11,-139.52"/>
<polygon fill="black" stroke="black" points="2462.17,-142.37 2469.04,-134.31 2458.64,-136.32 2462.17,-142.37"/>
</g>
<!-- 990_transferFrom -->
<g id="node12" class="node">
<title>990_transferFrom</title>
<ellipse fill="none" stroke="black" cx="2189" cy="-189" rx="73.39" ry="18"/>
<text text-anchor="middle" x="2189" y="-185.3" font-family="Times,serif" font-size="14.00">transferFrom</text>
</g>
<!-- 990_transferFrom&#45;&gt;990__approve -->
<g id="edge8" class="edge">
<title>990_transferFrom&#45;&gt;990__approve</title>
<path fill="none" stroke="black" d="M2229.45,-173.83C2242.56,-169.73 2257.26,-165.65 2271,-163 2413.34,-135.49 2451.6,-148 2596,-135 2636.34,-131.37 2681.72,-127.11 2716.95,-123.76"/>
<polygon fill="black" stroke="black" points="2717.45,-127.23 2727.07,-122.79 2716.79,-120.26 2717.45,-127.23"/>
</g>
<!-- 990__transfer -->
<g id="node27" class="node">
<title>990__transfer</title>
<ellipse fill="none" stroke="black" cx="2337" cy="-117" rx="52.79" ry="18"/>
<text text-anchor="middle" x="2337" y="-113.3" font-family="Times,serif" font-size="14.00">_transfer</text>
</g>
<!-- 990_transferFrom&#45;&gt;990__transfer -->
<g id="edge17" class="edge">
<title>990_transferFrom&#45;&gt;990__transfer</title>
<path fill="none" stroke="black" d="M2221.11,-172.81C2243.78,-162.09 2274.26,-147.67 2298.28,-136.32"/>
<polygon fill="black" stroke="black" points="2299.92,-139.41 2307.46,-131.97 2296.93,-133.08 2299.92,-139.41"/>
</g>
<!-- 990_transferFrom&#45;&gt;990__msgSender -->
<g id="edge10" class="edge">
<title>990_transferFrom&#45;&gt;990__msgSender</title>
<path fill="none" stroke="black" d="M2231.33,-174.22C2244.02,-170.32 2258.01,-166.27 2271,-163 2320.67,-150.52 2377.19,-139.26 2421.28,-131.13"/>
<polygon fill="black" stroke="black" points="2422.14,-134.53 2431.34,-129.29 2420.88,-127.65 2422.14,-134.53"/>
</g>
<!-- 990__mint -->
<g id="node13" class="node">
<title>990__mint</title>
<ellipse fill="none" stroke="black" cx="2230" cy="-117" rx="36.29" ry="18"/>
<text text-anchor="middle" x="2230" y="-113.3" font-family="Times,serif" font-size="14.00">_mint</text>
</g>
<!-- 990__beforeTokenTransfer -->
<g id="node20" class="node">
<title>990__beforeTokenTransfer</title>
<ellipse fill="none" stroke="black" cx="2230" cy="-34" rx="111.58" ry="18"/>
<text text-anchor="middle" x="2230" y="-30.3" font-family="Times,serif" font-size="14.00">_beforeTokenTransfer</text>
</g>
<!-- 990__mint&#45;&gt;990__beforeTokenTransfer -->
<g id="edge13" class="edge">
<title>990__mint&#45;&gt;990__beforeTokenTransfer</title>
<path fill="none" stroke="black" d="M2230,-98.82C2230,-88.19 2230,-74.31 2230,-62.2"/>
<polygon fill="black" stroke="black" points="2233.5,-62.15 2230,-52.15 2226.5,-62.15 2233.5,-62.15"/>
</g>
<!-- require(bool,string) -->
<g id="node32" class="node">
<title>require(bool,string)</title>
<ellipse fill="none" stroke="black" cx="3167" cy="-34" rx="102.08" ry="18"/>
<text text-anchor="middle" x="3167" y="-30.3" font-family="Times,serif" font-size="14.00">require(bool,string)</text>
</g>
<!-- 990__mint&#45;&gt;require(bool,string) -->
<g id="edge19" class="edge">
<title>990__mint&#45;&gt;require(bool,string)</title>
<path fill="none" stroke="black" d="M2250.59,-101.75C2257.95,-97.43 2266.53,-93.24 2275,-91 2316.79,-79.94 3010.68,-91.77 3053,-83 3079.01,-77.61 3106.5,-66.22 3127.97,-55.89"/>
<polygon fill="black" stroke="black" points="3129.66,-58.96 3137.08,-51.4 3126.56,-52.68 3129.66,-58.96"/>
</g>
<!-- 990_totalSupply -->
<g id="node14" class="node">
<title>990_totalSupply</title>
<ellipse fill="none" stroke="black" cx="2647" cy="-189" rx="64.19" ry="18"/>
<text text-anchor="middle" x="2647" y="-185.3" font-family="Times,serif" font-size="14.00">totalSupply</text>
</g>
<!-- 990_name -->
<g id="node15" class="node">
<title>990_name</title>
<ellipse fill="none" stroke="black" cx="2528" cy="-189" rx="36.29" ry="18"/>
<text text-anchor="middle" x="2528" y="-185.3" font-family="Times,serif" font-size="14.00">name</text>
</g>
<!-- 990_transfer -->
<g id="node16" class="node">
<title>990_transfer</title>
<ellipse fill="none" stroke="black" cx="1664" cy="-189" rx="48.19" ry="18"/>
<text text-anchor="middle" x="1664" y="-185.3" font-family="Times,serif" font-size="14.00">transfer</text>
</g>
<!-- 990_transfer&#45;&gt;990__transfer -->
<g id="edge11" class="edge">
<title>990_transfer&#45;&gt;990__transfer</title>
<path fill="none" stroke="black" d="M1690.56,-173.97C1699.93,-169.67 1710.69,-165.43 1721,-163 1960.94,-106.34 2031.58,-174.05 2275,-135 2279.78,-134.23 2284.71,-133.24 2289.62,-132.12"/>
<polygon fill="black" stroke="black" points="2290.71,-135.45 2299.58,-129.66 2289.04,-128.66 2290.71,-135.45"/>
</g>
<!-- 990_transfer&#45;&gt;990__msgSender -->
<g id="edge12" class="edge">
<title>990_transfer&#45;&gt;990__msgSender</title>
<path fill="none" stroke="black" d="M1690.55,-173.91C1699.91,-169.61 1710.68,-165.39 1721,-163 1867.92,-129.02 2249.06,-151.03 2399,-135 2407.39,-134.1 2416.15,-132.93 2424.83,-131.62"/>
<polygon fill="black" stroke="black" points="2425.63,-135.03 2434.96,-130.02 2424.54,-128.12 2425.63,-135.03"/>
</g>
<!-- 990__approve&#45;&gt;require(bool,string) -->
<g id="edge22" class="edge">
<title>990__approve&#45;&gt;require(bool,string)</title>
<path fill="none" stroke="black" d="M2829.19,-114.1C2885.3,-111.05 2976.73,-103.19 3053,-83 3078.14,-76.35 3105,-65.25 3126.33,-55.4"/>
<polygon fill="black" stroke="black" points="3127.85,-58.55 3135.41,-51.13 3124.87,-52.22 3127.85,-58.55"/>
</g>
<!-- 990_approve -->
<g id="node18" class="node">
<title>990_approve</title>
<ellipse fill="none" stroke="black" cx="2777" cy="-189" rx="48.19" ry="18"/>
<text text-anchor="middle" x="2777" y="-185.3" font-family="Times,serif" font-size="14.00">approve</text>
</g>
<!-- 990_approve&#45;&gt;990__approve -->
<g id="edge18" class="edge">
<title>990_approve&#45;&gt;990__approve</title>
<path fill="none" stroke="black" d="M2777,-170.7C2777,-162.98 2777,-153.71 2777,-145.11"/>
<polygon fill="black" stroke="black" points="2780.5,-145.1 2777,-135.1 2773.5,-145.1 2780.5,-145.1"/>
</g>
<!-- 990_approve&#45;&gt;990__msgSender -->
<g id="edge15" class="edge">
<title>990_approve&#45;&gt;990__msgSender</title>
<path fill="none" stroke="black" d="M2749.05,-174.32C2739.94,-170.25 2729.68,-166.06 2720,-163 2673.63,-148.34 2620.28,-137.37 2577.39,-129.94"/>
<polygon fill="black" stroke="black" points="2577.73,-126.44 2567.28,-128.22 2576.55,-133.34 2577.73,-126.44"/>
</g>
<!-- 990_decimals -->
<g id="node19" class="node">
<title>990_decimals</title>
<ellipse fill="none" stroke="black" cx="2046" cy="-189" rx="51.99" ry="18"/>
<text text-anchor="middle" x="2046" y="-185.3" font-family="Times,serif" font-size="14.00">decimals</text>
</g>
<!-- 990_allowance -->
<g id="node21" class="node">
<title>990_allowance</title>
<ellipse fill="none" stroke="black" cx="1919" cy="-189" rx="56.59" ry="18"/>
<text text-anchor="middle" x="1919" y="-185.3" font-family="Times,serif" font-size="14.00">allowance</text>
</g>
<!-- 990_balanceOf -->
<g id="node22" class="node">
<title>990_balanceOf</title>
<ellipse fill="none" stroke="black" cx="1787" cy="-189" rx="57.39" ry="18"/>
<text text-anchor="middle" x="1787" y="-185.3" font-family="Times,serif" font-size="14.00">balanceOf</text>
</g>
<!-- 990__burn -->
<g id="node23" class="node">
<title>990__burn</title>
<ellipse fill="none" stroke="black" cx="2139" cy="-117" rx="37.09" ry="18"/>
<text text-anchor="middle" x="2139" y="-113.3" font-family="Times,serif" font-size="14.00">_burn</text>
</g>
<!-- 990__burn&#45;&gt;990__beforeTokenTransfer -->
<g id="edge5" class="edge">
<title>990__burn&#45;&gt;990__beforeTokenTransfer</title>
<path fill="none" stroke="black" d="M2156.12,-100.76C2169.44,-88.9 2188.18,-72.22 2203.45,-58.63"/>
<polygon fill="black" stroke="black" points="2205.93,-61.11 2211.08,-51.84 2201.28,-55.88 2205.93,-61.11"/>
</g>
<!-- 990__burn&#45;&gt;require(bool,string) -->
<g id="edge20" class="edge">
<title>990__burn&#45;&gt;require(bool,string)</title>
<path fill="none" stroke="black" d="M2159.62,-102C2167.26,-97.59 2176.2,-93.28 2185,-91 2231.68,-78.9 3005.77,-92.76 3053,-83 3079.01,-77.62 3106.5,-66.23 3127.97,-55.9"/>
<polygon fill="black" stroke="black" points="3129.66,-58.97 3137.08,-51.41 3126.56,-52.69 3129.66,-58.97"/>
</g>
<!-- 990_decreaseAllowance -->
<g id="node24" class="node">
<title>990_decreaseAllowance</title>
<ellipse fill="none" stroke="black" cx="2942" cy="-189" rx="98.58" ry="18"/>
<text text-anchor="middle" x="2942" y="-185.3" font-family="Times,serif" font-size="14.00">decreaseAllowance</text>
</g>
<!-- 990_decreaseAllowance&#45;&gt;990__approve -->
<g id="edge6" class="edge">
<title>990_decreaseAllowance&#45;&gt;990__approve</title>
<path fill="none" stroke="black" d="M2904.97,-172.29C2879.16,-161.34 2844.72,-146.73 2818.06,-135.42"/>
<polygon fill="black" stroke="black" points="2819.2,-132.1 2808.63,-131.42 2816.47,-138.55 2819.2,-132.1"/>
</g>
<!-- 990_decreaseAllowance&#45;&gt;990__msgSender -->
<g id="edge7" class="edge">
<title>990_decreaseAllowance&#45;&gt;990__msgSender</title>
<path fill="none" stroke="black" d="M2886.43,-174.08C2869.65,-170.16 2851.14,-166.12 2834,-163 2749.77,-147.66 2652.79,-135.26 2584.56,-127.39"/>
<polygon fill="black" stroke="black" points="2584.62,-123.87 2574.29,-126.21 2583.82,-130.83 2584.62,-123.87"/>
</g>
<!-- 990__setupDecimals -->
<g id="node25" class="node">
<title>990__setupDecimals</title>
<ellipse fill="none" stroke="black" cx="1515" cy="-189" rx="83.39" ry="18"/>
<text text-anchor="middle" x="1515" y="-185.3" font-family="Times,serif" font-size="14.00">_setupDecimals</text>
</g>
<!-- 990_constructor -->
<g id="node26" class="node">
<title>990_constructor</title>
<ellipse fill="none" stroke="black" cx="1349" cy="-189" rx="64.19" ry="18"/>
<text text-anchor="middle" x="1349" y="-185.3" font-family="Times,serif" font-size="14.00">constructor</text>
</g>
<!-- 990__transfer&#45;&gt;990__beforeTokenTransfer -->
<g id="edge9" class="edge">
<title>990__transfer&#45;&gt;990__beforeTokenTransfer</title>
<path fill="none" stroke="black" d="M2316.37,-100.38C2300.5,-88.37 2278.34,-71.6 2260.44,-58.04"/>
<polygon fill="black" stroke="black" points="2262.13,-54.93 2252.04,-51.69 2257.9,-60.51 2262.13,-54.93"/>
</g>
<!-- 990__transfer&#45;&gt;require(bool,string) -->
<g id="edge21" class="edge">
<title>990__transfer&#45;&gt;require(bool,string)</title>
<path fill="none" stroke="black" d="M2365.47,-101.74C2375.49,-97.42 2387.01,-93.23 2398,-91 2469.32,-76.5 2981.75,-97.84 3053,-83 3079,-77.58 3106.49,-66.19 3127.96,-55.87"/>
<polygon fill="black" stroke="black" points="3129.65,-58.94 3137.07,-51.38 3126.56,-52.66 3129.65,-58.94"/>
</g>
<!-- 990_symbol -->
<g id="node28" class="node">
<title>990_symbol</title>
<ellipse fill="none" stroke="black" cx="1222" cy="-189" rx="44.39" ry="18"/>
<text text-anchor="middle" x="1222" y="-185.3" font-family="Times,serif" font-size="14.00">symbol</text>
</g>
<!-- 22__msgData -->
<g id="node30" class="node">
<title>22__msgData</title>
<ellipse fill="none" stroke="black" cx="3275" cy="-189" rx="56.59" ry="18"/>
<text text-anchor="middle" x="3275" y="-185.3" font-family="Times,serif" font-size="14.00">_msgData</text>
</g>
<!-- 22__msgSender -->
<g id="node31" class="node">
<title>22__msgSender</title>
<ellipse fill="none" stroke="black" cx="3133" cy="-189" rx="67.69" ry="18"/>
<text text-anchor="middle" x="3133" y="-185.3" font-family="Times,serif" font-size="14.00">_msgSender</text>
</g>
</g>
</svg>
